<svg version="1.0" xmlns="http://www.w3.org/2000/svg" width="200.000000pt" height="200.000000pt"
    viewBox="0 0 200.000000 200.000000" preserveAspectRatio="xMidYMid meet">
    <g transform="translate(0.000000,200.000000) scale(0.100000,-0.100000)" fill="#000000" stroke="none">
        <path
            d="M151 1781 c-16 -16 -19 -28 -14 -53 13 -72 85 -198 175 -309 32 -40 43 -60 37 -70 -30 -47 12 -109 73 -109 31 0 43 -8 88 -57 49 -55 51 -60 46 -102 -9 -69 11 -169 48 -243 39 -77 42 -72 -62 -86 -69 -10 -121 -7 -135 7 -17 17 3 60 44 93 72 58 107 91 80 76 -63 -35 -123 -88 -152 -134 -23 -38 -23 -39 -3 -58 20 -20 123 -21 213 -2 l64 13 53 -52 c59 -58 153 -109 234 -126 29 -6 92 -9 139 -6 l86 4 90 -67 c201 -150 364 -245 467 -272 124 -32 132 62 21 242 -41 65 -118 175 -133 190 -6 5 -102 122 -107 129 -2 2 -5 2 -8 -1 -5 -4 15 -34 45 -67 45 -50 130 -161 123 -161 -4 0 -3 -4 2 -8 38 -27 125 -189 125 -231 0 -10 -7 -24 -15 -31 -53 -44 -220 33 -474 218 l-104 76 36 12 c52 18 114 63 173 125 83 89 123 195 124 329 l1 75 70 45 c74 48 169 139 169 163 0 19 -19 34 -55 43 -17 4 -36 11 -42 16 -18 14 -43 2 -43 -21 0 -24 25 -34 50 -19 14 9 22 9 34 -1 23 -19 21 -26 -21 -72 -35 -39 -161 -135 -167 -128 -19 27 -53 150 -49 176 4 25 0 34 -20 47 -13 9 -31 14 -40 10 -11 -4 -30 7 -54 30 -95 89 -256 137 -391 116 -102 -17 -217 -77 -283 -148 -51 -55 -109 -154 -109 -186 0 -30 -19 -25 -58 18 -36 39 -40 48 -35 82 7 56 -26 97 -74 92 -31 -4 -37 1 -72 47 -86 114 -151 239 -151 290 0 40 39 52 103 32 64 -20 203 -99 317 -179 135 -96 160 -112 160 -105 0 7 -165 127 -249 182 -100 65 -248 134 -303 141 -38 5 -49 3 -67 -15z m1064 -292 c33 -14 86 -44 117 -68 54 -40 56 -44 51 -78 -7 -41 13 -63 54 -63 18 0 28 -10 42 -43 10 -23 21 -56 25 -72 6 -29 3 -32 -63 -67 l-68 -38 -5 44 c-11 95 -97 204 -196 249 -68 30 -189 30 -256 -1 -113 -52 -187 -152 -202 -272 -9 -71 3 -61 17 16 19 103 69 176 157 226 49 28 68 33 142 36 78 4 92 2 143 -22 73 -35 147 -116 170 -186 24 -74 22 -92 -13 -112 -25 -14 -30 -15 -30 -3 0 12 -22 15 -120 15 -73 0 -120 -4 -120 -10 0 -6 42 -10 105 -10 77 0 105 -3 105 -12 0 -12 -227 -118 -251 -118 -6 0 -8 7 -5 16 3 9 6 94 6 190 l0 174 28 0 c56 0 104 -22 149 -67 27 -27 49 -41 54 -36 15 15 -27 60 -85 93 -112 65 -264 24 -333 -89 -38 -61 -48 -128 -29 -195 9 -31 23 -59 30 -62 7 -3 13 -11 13 -19 0 -12 -4 -12 -21 2 -55 47 -246 248 -246 259 0 7 19 49 42 94 61 120 169 209 297 246 74 21 224 13 296 -17z m-793 -154 c2 -10 14 -22 28 -26 23 -6 23 -7 3 -8 -12 -1 -29 -11 -37 -23 -12 -17 -16 -19 -16 -6 0 9 -8 19 -17 23 -17 6 -17 7 2 17 19 11 19 11 0 19 -17 7 -18 8 -2 8 9 1 17 9 17 18 0 22 17 5 22 -22z m554 -167 c-1 -51 1 -101 6 -110 6 -12 5 -18 -2 -18 -6 0 -8 -10 -4 -24 3 -13 1 -32 -4 -43 -12 -23 -5 -43 14 -36 18 7 7 -26 -15 -45 -14 -11 -12 -12 14 -7 l30 6 -21 -19 c-22 -21 -71 -41 -61 -25 3 5 -9 9 -26 9 -20 -1 -31 4 -30 11 2 7 -3 10 -11 7 -10 -4 -13 3 -12 26 1 27 2 29 13 13 7 -9 13 -12 13 -6 0 7 -5 15 -10 18 -8 5 -7 12 2 23 10 12 10 14 0 8 -8 -5 -17 3 -25 23 -7 17 -16 29 -18 26 -3 -2 -5 11 -5 31 0 32 2 34 31 32 41 -2 54 7 47 34 l-5 22 -8 -22 c-6 -15 -17 -22 -34 -22 -20 0 -25 5 -25 26 0 17 4 23 13 18 8 -5 8 -2 -2 9 -12 15 -9 21 12 18 4 0 7 4 7 10 0 5 5 7 12 3 6 -4 8 -3 5 4 -11 17 3 41 20 35 9 -4 14 -2 11 3 -10 15 15 42 42 47 14 2 26 5 27 6 1 0 1 -41 -1 -91z m-241 -239 c4 -15 20 -46 36 -68 16 -23 29 -43 29 -45 0 -2 -12 -6 -27 -9 -16 -4 -49 -13 -76 -21 l-47 -15 -24 47 c-37 73 -56 149 -56 226 l0 71 80 -80 c46 -46 82 -90 85 -106z m785 132 c0 -183 -100 -351 -260 -435 l-68 -36 -49 39 c-26 22 -61 51 -78 65 l-30 25 45 1 c56 0 134 36 190 87 50 44 100 141 100 193 0 33 5 37 68 72 37 20 70 37 75 38 4 0 7 -22 7 -49z m-164 -72 c-20 -126 -135 -236 -269 -257 l-57 -9 -52 45 c-70 59 -72 61 -67 67 3 2 23 -4 44 -15 115 -59 289 16 326 141 10 31 46 63 78 68 2 1 1 -17 -3 -40z m-116 -56 c-30 -54 -103 -102 -168 -110 l-52 -6 0 30 c0 26 5 31 38 42 20 6 73 29 117 50 44 21 82 37 84 35 1 -1 -7 -20 -19 -41z m-402 -81 c13 -12 13 -15 1 -23 -8 -5 -17 -9 -20 -9 -8 0 -43 50 -64 90 l-17 35 43 -40 c23 -22 49 -46 57 -53z m79 -73 c34 -31 39 -39 21 -34 -13 4 -40 18 -62 32 -30 19 -35 27 -25 34 19 12 17 13 66 -32z m-78 7 c15 -17 95 -56 116 -56 9 0 56 -33 105 -74 l89 -75 -45 -7 c-133 -20 -292 36 -401 142 -37 35 -40 44 -15 44 9 0 42 9 72 20 68 23 65 23 79 6z" />
        <path
            d="M1768 1389 c38 -11 50 -33 33 -61 -7 -11 -10 -22 -8 -25 7 -6 47 47 47 63 0 19 -33 34 -72 33 l-33 -1 33 -9z" />
        <path d="M1535 1363 c-11 -3 -24 -8 -28 -13 -8 -7 83 5 108 15 15 5 -56 4 -80 -2z" />
        <path
            d="M1708 1034 c-72 -38 -62 -142 15 -162 80 -22 145 58 106 130 -9 17 -65 49 -86 48 -4 -1 -20 -7 -35 -16z m52 -34 c0 -25 29 -38 41 -19 6 10 8 8 6 -8 -1 -14 -10 -24 -24 -28 -13 -3 -25 -16 -29 -30 -8 -32 -23 -23 -16 10 4 25 -6 31 -48 25 -23 -3 1 17 25 22 12 2 21 13 23 26 4 28 22 29 22 2z" />
        <path d="M320 748 c-30 -48 -23 -63 30 -65 36 -1 39 0 15 5 -33 8 -44 37 -25 71 17 34 2 24 -20 -11z" />
        <path d="M489 544 c-9 -11 -10 -20 -2 -32 24 -39 82 -15 68 28 -8 24 -47 27 -66 4z" />
        <path
            d="M265 188 c-27 -15 -35 -28 -35 -60 0 -40 42 -66 82 -50 16 6 58 9 94 7 36 -2 64 -1 62 3 -17 39 -53 102 -57 102 -3 0 -21 -24 -39 -53 -24 -38 -31 -45 -26 -24 6 25 4 27 -22 26 -28 -1 -28 -1 -4 -8 l24 -7 -22 -22 c-33 -33 -42 -27 -42 28 0 41 3 50 18 50 10 0 23 -5 30 -12 9 -9 12 -9 12 0 0 7 -12 17 -26 22 -30 12 -24 12 -49 -2z" />
        <path
            d="M970 193 c-43 -15 -54 -82 -18 -107 40 -29 80 -14 92 34 6 23 6 24 -5 5 -14 -22 -39 -44 -51 -45 -5 0 -8 25 -8 55 0 59 8 67 40 35 11 -11 20 -16 20 -11 0 10 -40 42 -50 40 -3 0 -12 -3 -20 -6z" />
        <path
            d="M1589 193 c-24 -6 -43 -47 -35 -78 8 -32 50 -51 83 -36 13 6 23 16 23 22 0 7 -8 5 -19 -5 -28 -25 -41 -12 -41 40 0 36 3 44 18 44 10 0 23 -5 30 -12 9 -9 12 -9 12 -1 0 20 -37 34 -71 26z" />
        <path
            d="M483 136 l2 -54 50 -5 c28 -3 54 -1 60 4 5 5 18 9 30 10 18 0 18 1 2 7 -15 7 -16 10 -4 26 13 18 15 17 25 -12 9 -27 16 -32 41 -32 l31 0 -27 55 c-15 30 -30 55 -33 55 -3 0 -20 -22 -38 -50 -28 -42 -38 -50 -64 -50 l-31 0 5 50 c5 49 5 50 -23 50 -27 0 -28 -1 -26 -54z" />
        <path
            d="M741 160 c21 -28 21 -31 6 -48 -9 -10 -17 -23 -17 -28 0 -5 9 2 19 15 l19 24 11 -21 c8 -15 21 -22 40 -22 l29 0 -31 55 c-28 48 -36 54 -65 55 l-33 0 22 -30z" />
        <path d="M860 135 c0 -52 1 -55 25 -55 24 0 25 3 25 55 0 52 -1 55 -25 55 -24 0 -25 -3 -25 -55z" />
        <path
            d="M1060 140 c0 -38 4 -52 19 -60 54 -29 92 0 89 68 l-1 47 -4 -45 c-4 -41 -22 -70 -45 -70 -4 0 -8 25 -8 55 0 52 -1 55 -25 55 -23 0 -25 -3 -25 -50z" />
        <path
            d="M1190 175 c-11 -13 -8 -22 14 -53 26 -36 20 -56 -9 -32 -10 9 -15 9 -15 1 0 -16 45 -24 69 -11 28 14 26 30 -6 73 -32 41 -36 43 -53 22z" />
        <path
            d="M1328 183 c19 -4 22 -11 22 -54 0 -46 2 -49 25 -49 23 0 25 3 25 49 0 39 4 51 18 54 9 3 -12 5 -48 4 -36 0 -55 -2 -42 -4z" />
        <path
            d="M1440 136 l0 -53 48 -6 c26 -3 51 -1 57 4 5 5 -3 9 -23 9 -29 0 -32 3 -32 29 0 25 5 30 28 34 l27 4 -27 2 c-16 0 -28 5 -28 10 0 5 12 12 28 14 15 2 3 5 -25 6 l-53 1 0 -54z" />
        <path
            d="M1674 135 c1 -53 2 -55 28 -55 25 0 27 2 21 31 -6 29 -4 30 23 27 25 -3 29 -7 26 -30 -2 -16 1 -28 7 -28 7 0 11 23 11 55 0 30 -4 55 -10 55 -5 0 -10 -9 -10 -20 0 -15 -7 -20 -26 -20 -21 0 -24 4 -19 20 5 17 2 20 -23 20 -30 0 -30 0 -28 -55z" />
    </g>
</svg>